<mxfile host="app.diagrams.net" modified="2024-06-11T06:16:51.477Z" agent="Mozilla/5.0 (Windows NT 10.0; Win64; x64) AppleWebKit/537.36 (KHTML, like Gecko) Chrome/122.0.0.0 Safari/537.36" version="24.3.0" etag="xcsFyp2AfUGHNILP8qrz" type="github">
  <diagram name="第 1 页" id="y79qAj3bfD2L7tGAeQlF">
    <mxGraphModel>
      <root>
        <mxCell id="0" />
        <mxCell id="1" parent="0" />
      </root>
    </mxGraphModel>
  </diagram>
</mxfile>
